<?xml version="1.0" encoding="utf-8"?>
<!-- Generator: Adobe Illustrator 25.0.0, SVG Export Plug-In . SVG Version: 6.00 Build 0)  -->
<svg version="1.1" id="Ebene_1" xmlns="http://www.w3.org/2000/svg" xmlns:xlink="http://www.w3.org/1999/xlink" x="0px" y="0px"
	 viewBox="0 0 475 622" style="enable-background:new 0 0 475 622;" xml:space="preserve">
<style type="text/css">
	.sblst0{fill:#4C4B66;}
	.sblst1{fill:#545472;}
	.sblst2{fill:#EFCAAC;}
	.sblst3{fill:#F6DFC9;}
	.sblst4{display:none;fill:#1B374F;}
	.sblst5{fill:#6C63FF;}
	.sblst6{fill:#3F3D56;}
	.sblst7{fill:#472919;}
</style>
<path class="sblst0" d="M172.2,266.3c0,0-79,16.5-100.3,65.6c-19.2,44.3-52.6,167.4-52.6,167.4h78.3c0,0,31-131.6,36.7-153
	C140,324.9,172.2,266.3,172.2,266.3z"/>
<path class="sblst0" d="M295.8,273.7c0,0,64,9.1,85.2,58.1c19.2,44.3,52.6,167.4,52.6,167.4h-78.3c0,0-31-131.6-36.7-153
	C312.9,324.9,295.8,273.7,295.8,273.7z"/>
<path class="sblst1" d="M324.9,330.8c-1.7-15.8-4.5-35.6-8.6-50.8c-26-15.2-73.3-18.6-73.3-18.6h-12.2h-12.5h-12.2
	c0,0-45.1,2.4-71.7,17.3c-4.1,15.2-8.5,36.3-10.2,52.1c-3.6,33.2-2.2,66.9,1.3,100.1c2.4,22.9,5.9,45.7,9.4,68.4h83.4h12.5h83.4
	c3.6-22.7,7-45.5,9.4-68.4C327.2,397.7,328.6,364,324.9,330.8z"/>
<path class="sblst2" d="M264.2,269.6c-10-5.2-5.3-56.7-5.3-56.7h-65.1c0,0,4.6,51.5-5.3,56.7c-10,5.2-14.8,3.8-9.9,19.5
	c4,12.8,18.9,19.1,40.1,20.5c0,0,5.2,0.3,7.7,0.3c2.6,0,7.7-0.3,7.7-0.3c21.2-1.5,36.1-7.8,40.1-20.5
	C279.1,273.4,274.2,274.8,264.2,269.6z"/>
<path class="sblst2" d="M318.9,160.9c-2.4-3.2-6.6-5.3-10.4-6.1c-8.9-1.8-13.8,10.1-16.1,16.6c-3.9,10.8-7,22.4-8.9,33.7
	c-0.3,1.7-0.4,3.7,0.9,4.8c0.9,0.7,2.1,0.8,3.2,0.8c18-0.7,25.5-22.9,31.4-36.5c0.9-2.2,1.8-4.4,2-6.8
	C321.1,165,320.3,162.8,318.9,160.9z"/>
<path class="sblst2" d="M132.8,167.4c0.2,2.4,1.1,4.6,2,6.8c5.9,13.6,13.4,35.9,31.4,36.5c1.1,0,2.4-0.1,3.2-0.8
	c1.3-1.1,1.1-3.1,0.9-4.8c-1.9-11.3-4.9-22.9-8.9-33.7c-2.4-6.5-7.2-18.4-16.1-16.6c-3.8,0.8-8,2.9-10.4,6.1
	C133.5,162.8,132.7,165,132.8,167.4z"/>
<path class="sblst3" d="M306.4,86.6c-4.8-20.2-15-38.5-33.2-49.4c-34.7-20.9-95.7-11.9-116.4,25.5c-4.2,7.5-8,15.7-10.6,23.9
	c-10.4,32.7,0.4,72.7,10.1,104.5c7.5,24.7,21.1,48.8,46.3,58.7c58.1,22.7,93-36.6,102.1-84.6C309.4,139.7,312.4,112,306.4,86.6z"/>
<path class="sblst2" d="M130.9,499.5c0.5-0.7,0.8-1.6,0.7-2.5c-0.4-2.1-2.9-2.9-4.6-3.8c-6.9-3.7-13.2-7.7-18.9-13.1
	c-2.4-2.3-4.6-5.3-7.4-7.1c-2.9-2-6.9-2.1-10.2-2.8c-8.1-1.8-16.1-3.5-24.2-4.7c-6.9-1-14.1-2.7-20.9-0.6c-6.8,2.2-12.1,7.3-17,12.2
	c-5.1,5.2-9.9,10.7-12.4,17.5c-0.1,0.3-1.4,2.6-2.2,4.8H130.9z"/>
<path class="sblst2" d="M322.1,499.5c-0.5-0.7-0.8-1.6-0.7-2.5c0.4-2.1,2.9-2.9,4.6-3.8c6.9-3.7,13.2-7.7,18.9-13.1
	c2.4-2.3,4.6-5.3,7.4-7.1c2.8-2,6.9-2.1,10.2-2.8c8.1-1.8,16.1-3.5,24.2-4.7c6.9-1,14.1-2.7,20.9-0.6c6.8,2.2,12.1,7.3,17,12.2
	c5.1,5.2,9.9,10.7,12.4,17.5c0.1,0.3,1.4,2.6,2.2,4.8H322.1z"/>
<path class="sblst4" d="M339.3,89.3c-8.3-3.9-14.8-10.4-20.8-17.3c-6.4-7.3-12.3-15.1-18.7-22.3C288.9,37.6,274.8,26,258,24.6
	c-4-0.3-8.7,0-12.3,1.9c-2.6-2.7-6.2-4.5-9.8-5.5c-12.7-3.5-26.6-0.3-38.5,4.7c-27.8,11.7-50.6,32.5-66.9,57.7
	c-3.7,5.7-7.2,11.6-10.4,17.6c-2.7,5.1-6,11.2-5.4,17.1c0.1,1.1,1.8,0.5,2.3,0c0.5-0.5,0.9-1,1.4-1.6c-0.2,2.2-0.2,4.4,0.2,6.5
	c0,0.2,0.1,0.3,0.1,0.5c0.2,1,0.4,1.9,0.6,2.9c1.7,5.6,6.2,9.3,10.4,13.1c4.6,4.1,7.9,8.8,10.3,14.4c2.4,5.4,3.8,11.2,5.5,16.9
	c1,3.2,2,6.4,3.1,9.6c1.1,3.2,2.3,6.4,4.3,9.2c0.7,1,2.4-0.1,2.5-1.1c0.1-3.6-0.3-7.2-0.4-10.8c-0.1-3.6,0.4-7.1,1.3-10.6
	c0-0.1,0-0.1,0.1-0.2c0.5,0,1.1-0.1,1.6-0.2c0.1,0,0.2,0.1,0.3,0.1c4.9-0.7,9.8-2.8,14.2-5c3.4-1.7,6.6-3.6,9.6-5.8
	c12.6-4.5,23.5-13.3,31.3-24.2c4.2-5.9,7.6-12.4,10-19.3c1-2.9,1.7-5.8,2.4-8.7c-0.8,4.7-2,9.3-3.4,13.6
	c-4.1,12.6-11.1,23.9-20.5,33.1c-5.4,5.3-11.6,9.8-17.9,14c-0.8,0.5-0.2,1.3,0.6,0.9c10.8-6.2,20.7-14.5,28.1-24.6
	c8-11,13.2-24.2,15.1-37.6c0.5-3.6,1.1-7.5,0.6-11.1c0,0,0-0.1,0-0.2c1.4-0.4,2.8-0.7,4.2-1c0.7-0.1,1.4-0.1,2.1-0.1
	c3.1-0.1,6.2,0.3,9.2,1.1c0.1,0,0.1,0,0.2,0.1c0.3,22,13.7,42.4,32.1,54.2c5.5,3.5,11.5,6.3,18,7.1c0.6,0.1,1.4-1,0.6-1.2
	c-11.6-2.6-21.6-9.6-29.8-18c-8.3-8.5-14.5-18.5-17.3-30.1c-0.5-2.1-0.9-4.2-1.2-6.3c0.1,0.5,0.2,1.1,0.4,1.6c1,3,2.2,6,3.6,8.9
	c6.1,12.9,15.6,25.3,27.8,33c2.1,1.3,4.3,2.4,6.5,3.4c2.4,1.8,4.8,3.6,7.3,5.3c2.5,1.7,5.1,3.1,7.7,4.5c1,0.6,2.2,1.2,3.4,1.6
	c0,1.3-0.2,2.7-0.3,4c-0.5,5.1-2.6,10.1-2.3,15.3c0.1,1.2,1.6,0.8,2.1,0c2.9-5.3,4.9-10.9,7.3-16.4c0.5-1,1-2.1,1.5-3.1
	c0.4-0.6,0.7-1.2,1.1-1.8c0.1,0,0.2,0,0.2,0c0.9,0,2.5-1.9,1.1-2.2c4.3-7.2,8.7-14.4,13.2-21.5c3.8-6,12.8-13.2,6.5-20.6
	c-1.3-1.5-2.9-2.6-4.5-3.7c2.3,1,4.6,2.1,6.6,3.6c1.1,0.8,2.7-0.7,2.6-1.8c-0.9-6.7-5.9-11.6-11-15.8c3.8,0.3,7.5,0.8,11.2-0.3
	C338.8,91.6,340.6,90,339.3,89.3z"/>
<path class="sblst5" d="M172.2,482.6c5,0,9.1-4.1,9.1-9.1s-4.1-9.1-9.1-9.1c-5,0-9.1,4.1-9.1,9.1S167.2,482.6,172.2,482.6z"/>
<path class="sblst5" d="M353.4,491.7c5,0,9.1-4.1,9.1-9.1s-4.1-9.1-9.1-9.1c-5,0-9.1,4.1-9.1,9.1S348.4,491.7,353.4,491.7z"/>
<path class="sblst6" d="M474.2,602.4v6.1c0,1.7-0.3,3.3-0.9,4.9c-0.3,0.7-0.6,1.4-1,2c-1.2,2-2.9,3.7-4.9,4.8c-2,1.2-4.3,1.8-6.6,1.8
	H14.2c-2.3,0-4.6-0.6-6.6-1.8c-2-1.1-3.7-2.8-4.9-4.8c-0.4-0.6-0.7-1.3-1-2c-0.6-1.6-0.9-3.2-0.9-4.9v-6.1c0-1.8,0.3-3.5,1-5.1
	c0.7-1.6,1.7-3.1,2.9-4.4c1.2-1.2,2.7-2.2,4.4-2.9c1.6-0.7,3.4-1,5.1-1h25.7v-2.8c0-0.1,0-0.1,0-0.2s0.1-0.1,0.1-0.2
	s0.1-0.1,0.2-0.1s0.1,0,0.2,0h13.4c0.1,0,0.3,0.1,0.4,0.2c0.1,0.1,0.2,0.2,0.2,0.4v2.8h8.4v-2.8c0-0.1,0-0.1,0-0.2
	c0-0.1,0.1-0.1,0.1-0.2s0.1-0.1,0.2-0.1c0.1,0,0.1,0,0.2,0h13.4c0.1,0,0.3,0.1,0.4,0.2c0.1,0.1,0.2,0.2,0.2,0.4v2.8h8.4v-2.8
	c0-0.1,0-0.1,0-0.2s0.1-0.1,0.1-0.2c0.1-0.1,0.1-0.1,0.2-0.1c0.1,0,0.1,0,0.2,0h13.4c0.1,0,0.3,0.1,0.4,0.2c0.1,0.1,0.2,0.2,0.2,0.4
	v2.8h8.4v-2.8c0-0.1,0-0.1,0-0.2s0.1-0.1,0.1-0.2s0.1-0.1,0.2-0.1s0.1,0,0.2,0h13.4c0.1,0,0.3,0.1,0.4,0.2c0.1,0.1,0.2,0.2,0.2,0.4
	v2.8h8.4v-2.8c0-0.1,0-0.1,0-0.2s0.1-0.1,0.1-0.2s0.1-0.1,0.2-0.1c0.1,0,0.1,0,0.2,0h13.4c0.1,0,0.3,0.1,0.4,0.2
	c0.1,0.1,0.2,0.2,0.2,0.4v2.8h8.4v-2.8c0-0.1,0-0.1,0-0.2s0.1-0.1,0.1-0.2s0.1-0.1,0.2-0.1c0.1,0,0.1,0,0.2,0h13.4
	c0.1,0,0.3,0.1,0.4,0.2c0.1,0.1,0.2,0.2,0.2,0.4v2.8h8.4v-2.8c0-0.1,0-0.1,0-0.2s0.1-0.1,0.1-0.2s0.1-0.1,0.2-0.1s0.1,0,0.2,0h105.2
	c0.1,0,0.1,0,0.2,0c0.1,0,0.1,0.1,0.2,0.1c0.1,0.1,0.1,0.1,0.1,0.2c0,0.1,0,0.1,0,0.2v2.8h8.4v-2.8c0-0.1,0-0.1,0-0.2
	c0-0.1,0.1-0.1,0.1-0.2c0.1-0.1,0.1-0.1,0.2-0.1c0.1,0,0.1,0,0.2,0h13.4c0.1,0,0.3,0.1,0.4,0.2c0.1,0.1,0.2,0.2,0.2,0.4v2.8h8.4
	v-2.8c0-0.1,0-0.1,0-0.2c0-0.1,0.1-0.1,0.1-0.2s0.1-0.1,0.2-0.1c0.1,0,0.1,0,0.2,0h13.4c0.1,0,0.1,0,0.2,0s0.1,0.1,0.2,0.1
	c0.1,0.1,0.1,0.1,0.1,0.2c0,0.1,0,0.1,0,0.2v2.8h8.4v-2.8c0-0.1,0-0.1,0-0.2c0-0.1,0.1-0.1,0.1-0.2s0.1-0.1,0.2-0.1
	c0.1,0,0.1,0,0.2,0h13.4c0.1,0,0.1,0,0.2,0s0.1,0.1,0.2,0.1c0.1,0.1,0.1,0.1,0.1,0.2c0,0.1,0,0.1,0,0.2v2.8h8.4v-2.8
	c0-0.1,0-0.1,0-0.2c0-0.1,0.1-0.1,0.1-0.2s0.1-0.1,0.2-0.1c0.1,0,0.1,0,0.2,0h13.4c0.1,0,0.3,0.1,0.4,0.2c0.1,0.1,0.2,0.2,0.2,0.4
	v2.8h8.4v-2.8c0-0.1,0-0.1,0-0.2c0-0.1,0.1-0.1,0.1-0.2s0.1-0.1,0.2-0.1c0.1,0,0.1,0,0.2,0h13.4c0.1,0,0.1,0,0.2,0
	c0.1,0,0.1,0.1,0.2,0.1c0.1,0.1,0.1,0.1,0.1,0.2c0,0.1,0,0.1,0,0.2v2.8h8.4v-2.8c0-0.1,0-0.1,0-0.2c0-0.1,0.1-0.1,0.1-0.2
	s0.1-0.1,0.2-0.1c0.1,0,0.1,0,0.2,0H421c0.1,0,0.1,0,0.2,0s0.1,0.1,0.2,0.1c0.1,0.1,0.1,0.1,0.1,0.2c0,0.1,0,0.1,0,0.2v2.8h39.2
	c3.6,0,7,1.4,9.5,3.9C472.7,595.5,474.2,598.9,474.2,602.4L474.2,602.4z"/>
<path class="sblst6" d="M438.2,346.8h-409c-1.5,0-2.9,0.3-4.3,0.9c-1.4,0.6-2.6,1.4-3.7,2.4c-1,1-1.9,2.3-2.4,3.7s-0.9,2.8-0.9,4.3V586
	c0,3,1.2,5.8,3.3,8c2.1,2.1,5,3.3,8,3.3h409c3,0,5.9-1.2,8-3.3c2.1-2.1,3.3-5,3.3-8V358.1c0-3-1.2-5.9-3.3-8
	C444,348,441.2,346.8,438.2,346.8z"/>
<path class="sblst5" d="M234,497c13.8,0,25-11.2,25-25s-11.2-25-25-25s-25,11.2-25,25S220.2,497,234,497z"/>
<g>
	<g>
		<path class="sblst7" d="M141.8,159.3c0.6-0.4,1.3-0.8,2-1.2c0.1-0.1,0.2-0.2,0.2-0.3c0.6-0.8,1.2-1.6,1.8-2.4c0.2-0.3,0.4-0.7,0.6-1
			c0.1-0.2,0.5-1.2,0.8-1.7c0.4-1.4,0.9-2.8,1.3-4.1c0.8-2.4,1.7-4.7,2.7-6.8l0-17.2c0-3.7,0.6-7.2,1.9-10.5
			c0.5-1.3,1.1-2.5,1.8-3.6c0.2-0.3,0.4-0.7,0.6-1c0.5-0.8,1.1-1.5,1.7-2.2c0.3-0.3,0.5-0.6,0.8-0.9c0.8-0.8,1.6-1.6,2.5-2.2
			c0.1-0.1,0.2-0.2,0.3-0.2c1-0.7,2.1-1.3,3.2-1.8c0.3-0.2,0.7-0.3,1.1-0.4c0.8-0.3,1.7-0.6,2.5-0.8c0.4-0.1,0.8-0.2,1.2-0.3
			c1-0.2,2.1-0.3,3.1-0.3c0.2,0,0.4,0,0.6,0c0.8,0,1.7,0.1,2.5,0.2c0.6,0.1,1.1,0.1,1.7,0.2c1.4,0.3,2.8,0.7,4.2,1.3
			c7.2,3,21.2,6.5,46.4,6.5c15.7,0,27.1-1.4,35.2-3.2c4.8-1.1,8.5-2.3,11.2-3.4c2.8-1.2,5.7-1.7,8.5-1.7c8.4,0.1,16.1,5.3,19.3,13.9
			c1.2,3.3,1.9,6.9,1.9,10.5V147c0.2,0.7,0.5,1.4,0.6,2.1c0.3,1.1,0.5,2.2,0.8,3.2c0.2,0.5,0.5,1,0.7,1.4c0.2,0.3,0.4,0.5,0.6,0.8
			c0.9,1.1,1.8,2.1,2.7,3c1.3,1.4,2.7,2.8,4.1,4.1v-3.7c29.1-69.7-1-96.1-1.9-96.9c-31.5-35.8-53-34.8-53.8-34.8
			c-59.6,0-73.7-20.4-73.8-20.5L182.4,3l-2.5-0.4c-0.4-0.1-35.4-7-41.9,45.1c-1.1,8.6-3.1,17-6.2,24.9c-5.7,14.8-8.4,41.6,10,85.6
			L141.8,159.3z"/>
	</g>
</g>
</svg>
