<?xml version="1.0" encoding="utf-8"?>
<!-- Generator: Adobe Illustrator 25.0.0, SVG Export Plug-In . SVG Version: 6.00 Build 0)  -->
<svg version="1.1" id="Ebene_1" xmlns="http://www.w3.org/2000/svg" xmlns:xlink="http://www.w3.org/1999/xlink" x="0px" y="0px"
	 viewBox="0 0 476 294" style="enable-background:new 0 0 476 294;" xml:space="preserve">
<style type="text/css">
	.st0{fill:#FBFBFB;}
	.st1{fill:#6C63FF;}
	.st2{opacity:0.3;fill:#6C63FF;enable-background:new    ;}
	.st3{opacity:0.3;}
	.st4{fill:#3F3D56;}
	.st5{fill:#2F2E41;}
	.st6{fill:#FFE6DE;}
	.st7{opacity:0.1;enable-background:new    ;}
	.st8{fill:#D0CDE1;}
	.st9{fill:#F2F2F2;}
	.st10{fill:#563A28;}
</style>
<rect x="107.7" class="st0" width="368" height="213"/>
<path class="st1" d="M119.3,11.6c1.7,0,3.1-1.4,3.1-3.1s-1.4-3.1-3.1-3.1s-3.1,1.4-3.1,3.1C116.2,10.2,117.6,11.6,119.3,11.6z"/>
<path class="st1" d="M127.8,11.6c1.7,0,3.1-1.4,3.1-3.1s-1.4-3.1-3.1-3.1c-1.7,0-3.1,1.4-3.1,3.1C124.7,10.2,126.1,11.6,127.8,11.6z
	"/>
<path class="st1" d="M136.3,11.6c1.7,0,3.1-1.4,3.1-3.1s-1.4-3.1-3.1-3.1c-1.7,0-3.1,1.4-3.1,3.1S134.6,11.6,136.3,11.6z"/>
<path class="st2" d="M207.9,124.7h-44.7v4.6h44.7V124.7z"/>
<path class="st2" d="M205.5,134.7h-42.3v4.6h42.3V134.7z"/>
<path class="st2" d="M194,144.7h-30.8v4.6H194V144.7z"/>
<g class="st3">
	<path class="st2" d="M311.9,124.7h-44.7v4.6h44.7V124.7z"/>
	<path class="st2" d="M309.5,134.7h-42.3v4.6h42.3V134.7z"/>
	<path class="st2" d="M298,144.7h-30.8v4.6H298V144.7z"/>
	<path class="st2" d="M311.9,124.7h-44.7v4.6h44.7V124.7z"/>
	<path class="st2" d="M309.5,134.7h-42.3v4.6h42.3V134.7z"/>
	<path class="st2" d="M298,144.7h-30.8v4.6H298V144.7z"/>
</g>
<path class="st2" d="M419.7,124.7H375v4.6h44.7V124.7z"/>
<path class="st2" d="M417.3,134.7H375v4.6h42.3V134.7z"/>
<path class="st2" d="M405.8,144.7H375v4.6h30.8V144.7z"/>
<path class="st2" d="M214.1,64.6h-57v50.8h57V64.6z"/>
<path class="st4" d="M318,64.6h-57v50.8h57V64.6z"/>
<path class="st4" d="M425.9,64.6h-57v50.8h57V64.6z"/>
<path class="st1" d="M282.1,115.2h-0.8c0-0.8,0.5-20.5,8.2-25.9l0.4,0.6C282.6,95.1,282.1,115,282.1,115.2z"/>
<path class="st1" d="M293.6,89.1c2.1,0,3.8-1.7,3.8-3.8c0-2.1-1.7-3.8-3.8-3.8c-2.1,0-3.8,1.7-3.8,3.8
	C289.8,87.4,291.5,89.1,293.6,89.1z"/>
<path class="st1" d="M292.8,98.6c-2,0.6-4,0.7-6,0.3c1.3-1.6,3-2.8,4.9-3.5s4-0.8,6-0.3C296.4,96.7,294.7,97.9,292.8,98.6z"/>
<path class="st1" d="M389.9,115.2h-0.8c0-0.8,0.5-20.5,8.2-25.9l0.4,0.6C390.4,95.1,389.9,115,389.9,115.2z"/>
<path class="st1" d="M401.4,89.1c2.1,0,3.8-1.7,3.8-3.8c0-2.1-1.7-3.8-3.8-3.8c-2.1,0-3.8,1.7-3.8,3.8S399.3,89.1,401.4,89.1z"/>
<path class="st1" d="M400.6,98.6c-2,0.6-4,0.7-6,0.3c1.3-1.6,3-2.8,4.9-3.5s4-0.8,6-0.3C404.2,96.7,402.5,97.9,400.6,98.6z"/>
<path class="st5" d="M475.9,213.3H107V0h368.9V213.3z M108.5,211.8h365.8V1.5H108.5V211.8z"/>
<path class="st5" d="M475.2,15.5H107.8V17h367.4V15.5z"/>
<path class="st6" d="M39.1,109.7c0,0,9.9,15.8,6.4,20c-3.6,4.3,26.6,4.4,26.6,4.4s-4.5-22.9-3.2-28.2L39.1,109.7z"/>
<path class="st7" d="M39.1,109.7c0,0,9.9,15.8,6.4,20c-3.6,4.3,26.6,4.4,26.6,4.4s-4.5-22.9-3.2-28.2L39.1,109.7z"/>
<path class="st6" d="M128.3,253.3v18.5l18.5-3.9l-1.5-13.1L128.3,253.3z"/>
<path class="st6" d="M193.8,256.4l51.6,8.5l-13.1,19.3c0,0-36.2-12.3-45.4-12.3C177.6,271.8,193.8,256.4,193.8,256.4z"/>
<path class="st5" d="M76.7,219.4c0,0,38.5-44.7,50.8-42.4s17.7,16.2,17.7,16.2l6.9,68.5c0,0-24.6,2.3-24.6,0s-4.6-51.6-4.6-51.6
	s-36.2,80.1-55.5,27L76.7,219.4z"/>
<path class="st5" d="M14.3,249.4c0,0,0.8,38.5,23.9,40.8s48.5-15.4,48.5-15.4l41.6-19.9c0,0,81.3,32.1,95.9,25.2
	c0,0,15.4-16.2,5.4-20.8c-10-4.6-32.7-6-32.7-6l-59.3-30.8c0,0-11.6-3.1-31.6,5.4s-47,12.3-47,12.3L14.3,249.4z"/>
<path class="st4" d="M85.9,159.3l-1.5,32.3c0,0,0.8,42.4-6.2,45.4c-3.5,1.6-10.5,4.7-17.1,8.1c-4.9,2.6-9.5,5.3-12,7.6
	c-0.7,0.6-1.3,1.3-1.7,2c-3.1,5.4-23.1,4.6-27.7,0.8c-4.6-3.9-1.5,4.6-5.4,6.2c-3.7,1.5-8.9-10.7-5.7-29c0.1-0.6,0.2-1.2,0.3-1.8
	c3.5-17.7-2-60-1.2-76.4c0-1.2,0.2-2.5,0.4-3.7c2.3-12.3,31.8-37.4,37.3-26.7c6.8,13.2,22.4,1.1,25.1-4.9
	c15.4-0.8,20.8,17.7,20.8,17.7L85.9,159.3z"/>
<path class="st5" d="M148.3,264.8c0,0-12.3,4.6-16.2,3.9c-3.9-0.8-7.7,2.3-7.7,6.9s-4.6,15.4,2.3,16.2c6.9,0.8,35.4-0.8,41.6,1.5
	c0,0,27.7,0.8,25.4-10.8c-2.3-11.6-13.9-10.8-13.9-10.8S148.3,270.2,148.3,264.8z"/>
<path class="st5" d="M238.4,267.1c0,0,1.5-4.6,3.9-4.6c2.3,0,20.8,3.1,23.1,2.3c2.3-0.8,29.3-2.3,24.6,10.8
	c-4.6,13.1-20,14.6-20,14.6s-27.7-3.1-31.6-2.3c-3.9,0.8-17.7,0-15.4-3.9C225.3,280.2,240,273.3,238.4,267.1z"/>
<path class="st8" d="M168.3,156.5l4.2,17.4c0,0.2,0,0.4,0,0.6l-19.2,59.9c-0.1,0.2-0.2,0.4-0.4,0.6c-0.2,0.1-0.5,0.2-0.7,0.2
	s-0.5-0.1-0.7-0.3s-0.3-0.4-0.3-0.7l-2.7-23.3c0-0.2,0-0.3,0-0.5l17.6-54c0.1-0.2,0.2-0.4,0.4-0.6c0.2-0.1,0.4-0.2,0.7-0.2
	s0.5,0.1,0.6,0.2C168.1,156.1,168.3,156.3,168.3,156.5z"/>
<path class="st9" d="M166.8,158l3.9,15l-16.9,54.6l-3.9-16.9L166.8,158z"/>
<path class="st8" d="M81.6,239.3c0.7,2,67.6-0.6,68.3-1.3c0.6-0.8,1-1.7,1.4-2.6c0.6-1.3,1.2-2.6,1.2-2.6l-2.6-21.1l-66.3-2.4
	c0,0-1.7,17.8-2,26C81.4,236.7,81.4,238,81.6,239.3z"/>
<path class="st7" d="M141.4,214.6l1.3,18.2h-29.3v-18.2H141.4z"/>
<path class="st7" d="M103.7,220.4h0.2l-0.8,7.8H86.8v-7.8H103.7z"/>
<path class="st7" d="M81.6,239.3c0.7,2,67.6-0.6,68.3-1.3c0.6-0.8,1-1.7,1.4-2.6H81.5C81.4,236.7,81.4,238,81.6,239.3z"/>
<path class="st7" d="M61.2,245.2c-1.9,3.6-4.1,7.3-4.5,8.8c-0.3,1-3.1,0.4-7.5-1.2c-8.9-3.4-24.3-11.1-38.7-18.8
	c-0.7-0.4-1.3-0.8-1.9-1.2c0.1-0.6,0.2-1.2,0.3-1.8c3.5-17.7-2-60-1.2-76.4l6.6-2.2l13.1,12.3v52.4c0,0,33.9,18.5,36.2,20
	C64.8,237.9,63.2,241.5,61.2,245.2z"/>
<path class="st6" d="M89.8,203.2l20.8,10.8c0,0,12.3-13.1,20-3.1S108.3,224,108.3,224s-26.2-6.2-27-14.6
	C80.5,200.9,89.8,203.2,89.8,203.2z"/>
<path class="st6" d="M55.1,231.7l12.3,3.1c0,0,13.9-16.9,28.5-10.8s-18.5,18.5-18.5,18.5s-17.7,9.2-24.6,1.5S55.1,231.7,55.1,231.7z
	"/>
<path class="st4" d="M82.1,130.1c0.8,0.8,9.2,6.9,9.2,6.9s2.3,29.3-0.8,35.4c-3.1,6.2-5.4,6.2-3.1,9.2c2.3,3.1,5.4,0.8,2.3,6.2
	s-6.2,4.6-3.9,6.9c2.3,2.3,1.5,3.1,1.5,3.1l9.2,7.7c0,0-5.7,9-12.8,8.4c-7.2-0.7-13.3-35.3-13.3-35.3L82.1,130.1z"/>
<path class="st4" d="M14.3,148.5l-6.9,2.3c0,0-18.5,67.8,3.1,79.3s45.4,23.1,46.2,20s9.2-15.4,6.9-16.9s-36.2-20-36.2-20v-52.4
	L14.3,148.5z"/>
<path class="st7" d="M24.7,176.6l-1.5,37L64,232.9l-37.7-19.3L24.7,176.6z"/>
<path class="st6" d="M74.3,76.5c-1.3-5.4-4-10.3-8.9-13.2c-9.3-5.6-25.5-3.2-31,6.8c-1.1,2-2.1,4.2-2.8,6.4
	c-2.8,8.7,0.1,19.4,2.7,27.9c2,6.6,5.6,13,12.4,15.6c15.5,6,24.8-9.8,27.2-22.6C75.1,90.7,75.9,83.3,74.3,76.5z"/>
<g>
	<g>
		<path class="st10" d="M30.1,90.9c0.2-0.1,0.3-0.2,0.5-0.3c0,0,0-0.1,0.1-0.1c0.2-0.2,0.3-0.4,0.5-0.6c0.1-0.1,0.1-0.2,0.2-0.3
			c0-0.1,0.1-0.3,0.2-0.4c0.1-0.4,0.2-0.7,0.4-1.1c0.2-0.6,0.4-1.2,0.7-1.8l0-4.5c0-1,0.2-1.9,0.5-2.8c0.1-0.3,0.3-0.7,0.5-1
			c0.1-0.1,0.1-0.2,0.2-0.3c0.1-0.2,0.3-0.4,0.4-0.6c0.1-0.1,0.1-0.2,0.2-0.2c0.2-0.2,0.4-0.4,0.7-0.6c0,0,0.1,0,0.1-0.1
			c0.3-0.2,0.5-0.3,0.8-0.5c0.1,0,0.2-0.1,0.3-0.1c0.2-0.1,0.4-0.2,0.7-0.2c0.1,0,0.2-0.1,0.3-0.1c0.3-0.1,0.5-0.1,0.8-0.1
			c0.1,0,0.1,0,0.2,0c0.2,0,0.4,0,0.7,0.1c0.1,0,0.3,0,0.4,0c0.4,0.1,0.7,0.2,1.1,0.3c1.9,0.8,5.6,1.7,12.2,1.7
			c4.1,0,7.1-0.4,9.2-0.8c1.3-0.3,2.2-0.6,2.9-0.9c0.7-0.3,1.5-0.4,2.2-0.4c2.2,0,4.2,1.4,5.1,3.7c0.3,0.9,0.5,1.8,0.5,2.8v5.9
			c0.1,0.2,0.1,0.4,0.2,0.5c0.1,0.3,0.1,0.6,0.2,0.9c0.1,0.1,0.1,0.3,0.2,0.4c0.1,0.1,0.1,0.1,0.2,0.2c0.2,0.3,0.5,0.5,0.7,0.8
			c0.4,0.4,0.7,0.7,1.1,1.1v-1c7.6-18.3-0.3-25.2-0.5-25.5c-8.3-9.4-13.9-9.2-14.1-9.1c-15.6,0-19.4-5.4-19.4-5.4l-0.3-0.7l-0.7-0.1
			c-0.1,0-9.3-1.8-11,11.8c-0.3,2.3-0.8,4.5-1.6,6.5C26,72,25.2,79.1,30.1,90.6L30.1,90.9z"/>
	</g>
</g>
</svg>
