<?xml version="1.0" encoding="utf-8"?>
<!-- Generator: Adobe Illustrator 25.0.0, SVG Export Plug-In . SVG Version: 6.00 Build 0)  -->
<svg version="1.1" id="Ebene_1" xmlns="http://www.w3.org/2000/svg" xmlns:xlink="http://www.w3.org/1999/xlink" x="0px" y="0px"
	 viewBox="0 0 462 312" style="enable-background:new 0 0 462 312;" xml:space="preserve">
<style type="text/css">
	.siwst0{fill:#E5E5E5;}
	.siwst1{fill:#FFFFFF;}
	.siwst2{fill:#6C63FF;}
	.siwst3{fill:#3F3D56;}
	.siwst4{fill:#CCCCCC;}
	.siwst5{fill:#F1F1F1;}
	.siwst6{fill:#FF6583;}
</style>
<path class="siwst0" d="M461.8,12.7H0.2v219.1h461.6V12.7z"/>
<path class="siwst1" d="M448.6,31.4H13.4v182.8h435.2V31.4z"/>
<path class="siwst2" d="M461.6,0H0v19.6h461.6V0z"/>
<path class="siwst1" d="M14.6,13.4c2,0,3.6-1.6,3.6-3.6c0-2-1.6-3.6-3.6-3.6s-3.6,1.6-3.6,3.6C10.9,11.8,12.6,13.4,14.6,13.4z"/>
<path class="siwst1" d="M28.4,13.4c2,0,3.6-1.6,3.6-3.6c0-2-1.6-3.6-3.6-3.6s-3.6,1.6-3.6,3.6C24.7,11.8,26.4,13.4,28.4,13.4z"/>
<path class="siwst1" d="M42.2,13.4c2,0,3.6-1.6,3.6-3.6c0-2-1.6-3.6-3.6-3.6c-2,0-3.6,1.6-3.6,3.6C38.5,11.8,40.2,13.4,42.2,13.4z"/>
<path class="siwst3" d="M84.7,73c-0.5,0-0.9,0.2-1.3,0.5c-0.3,0.3-0.5,0.8-0.5,1.3c0,0.5,0.2,0.9,0.5,1.3c0.3,0.3,0.8,0.5,1.3,0.5h49
	c0.5,0,0.9-0.2,1.3-0.5s0.5-0.8,0.5-1.3c0-0.5-0.2-0.9-0.5-1.3c-0.3-0.3-0.8-0.5-1.3-0.5H84.7z"/>
<path class="siwst4" d="M57,97.7c-0.5,0-0.9,0.2-1.3,0.5c-0.3,0.3-0.5,0.8-0.5,1.3c0,0.5,0.2,0.9,0.5,1.3c0.3,0.3,0.8,0.5,1.3,0.5
	h104.4c0.5,0,0.9-0.2,1.3-0.5c0.3-0.3,0.5-0.8,0.5-1.3c0-0.5-0.2-0.9-0.5-1.3s-0.8-0.5-1.3-0.5H57z"/>
<path class="siwst4" d="M57,112c-0.5,0-0.9,0.2-1.3,0.5c-0.3,0.3-0.5,0.8-0.5,1.3c0,0.5,0.2,0.9,0.5,1.3c0.3,0.3,0.8,0.5,1.3,0.5h104.4
	c0.5,0,0.9-0.2,1.3-0.5c0.3-0.3,0.5-0.8,0.5-1.3c0-0.5-0.2-0.9-0.5-1.3c-0.3-0.3-0.8-0.5-1.3-0.5H57z"/>
<path class="siwst4" d="M57,126.2c-0.5,0-0.9,0.2-1.3,0.5c-0.3,0.3-0.5,0.8-0.5,1.3c0,0.5,0.2,0.9,0.5,1.3c0.3,0.3,0.8,0.5,1.3,0.5
	h104.4c0.5,0,0.9-0.2,1.3-0.5s0.5-0.8,0.5-1.3c0-0.5-0.2-0.9-0.5-1.3s-0.8-0.5-1.3-0.5H57z"/>
<path class="siwst4" d="M57,140.5c-0.5,0-0.9,0.2-1.3,0.5c-0.3,0.3-0.5,0.8-0.5,1.3s0.2,0.9,0.5,1.3c0.3,0.3,0.8,0.5,1.3,0.5h104.4
	c0.5,0,0.9-0.2,1.3-0.5s0.5-0.8,0.5-1.3s-0.2-0.9-0.5-1.3s-0.8-0.5-1.3-0.5H57z"/>
<path class="siwst4" d="M57,154.8c-0.5,0-0.9,0.2-1.3,0.5c-0.3,0.3-0.5,0.8-0.5,1.3c0,0.5,0.2,0.9,0.5,1.3c0.3,0.3,0.8,0.5,1.3,0.5
	h104.4c0.5,0,0.9-0.2,1.3-0.5s0.5-0.8,0.5-1.3c0-0.5-0.2-0.9-0.5-1.3s-0.8-0.5-1.3-0.5H57z"/>
<path class="siwst4" d="M57,169c-0.5,0-0.9,0.2-1.3,0.5c-0.3,0.3-0.5,0.8-0.5,1.3c0,0.5,0.2,0.9,0.5,1.3c0.3,0.3,0.8,0.5,1.3,0.5h104.4
	c0.5,0,0.9-0.2,1.3-0.5c0.3-0.3,0.5-0.8,0.5-1.3c0-0.5-0.2-0.9-0.5-1.3s-0.8-0.5-1.3-0.5H57z"/>
<path class="siwst5" d="M401.3,173.4h-158c-1.1,0-2.1-0.4-2.8-1.2c-0.7-0.7-1.2-1.8-1.2-2.8V76.4c0-1.1,0.4-2.1,1.2-2.8
	c0.7-0.7,1.8-1.2,2.8-1.2h158c1.1,0,2.1,0.4,2.8,1.2c0.7,0.7,1.2,1.8,1.2,2.8v92.9c0,1.1-0.4,2.1-1.2,2.8
	C403.3,172.9,402.3,173.4,401.3,173.4z"/>
<path class="siwst1" d="M422,194.6H264c-1.1,0-2.1-0.4-2.8-1.2c-0.7-0.7-1.2-1.8-1.2-2.8V97.7c0-1.1,0.4-2.1,1.2-2.8
	c0.7-0.7,1.8-1.2,2.8-1.2h158c1.1,0,2.1,0.4,2.8,1.2c0.7,0.7,1.2,1.8,1.2,2.8v92.9c0,1.1-0.4,2.1-1.2,2.8
	C424.1,194.2,423.1,194.6,422,194.6z"/>
<path class="siwst3" d="M422,196H264c-1.4,0-2.8-0.6-3.8-1.6c-1-1-1.6-2.4-1.6-3.8V97.7c0-1.4,0.6-2.8,1.6-3.8c1-1,2.4-1.6,3.8-1.6h158
	c1.4,0,2.8,0.6,3.8,1.6c1,1,1.6,2.4,1.6,3.8v92.9c0,1.4-0.6,2.8-1.6,3.8C424.8,195.4,423.5,196,422,196z M264,95.1
	c-0.7,0-1.4,0.3-1.9,0.8c-0.5,0.5-0.8,1.2-0.8,1.9v92.9c0,0.7,0.3,1.4,0.8,1.9c0.5,0.5,1.2,0.8,1.9,0.8h158c0.7,0,1.4-0.3,1.9-0.8
	c0.5-0.5,0.8-1.2,0.8-1.9V97.7c0-0.7-0.3-1.4-0.8-1.9c-0.5-0.5-1.2-0.8-1.9-0.8H264z"/>
<path class="siwst6" d="M342.8,170.2c7.6,0,13.7-6.1,13.7-13.7c0-7.6-6.1-13.7-13.7-13.7c-7.6,0-13.7,6.1-13.7,13.7
	C329.1,164.1,335.3,170.2,342.8,170.2z"/>
<path class="siwst2" d="M369.3,143.3c-0.8-0.9-1.8-1.5-2.9-2c-1.1-0.5-2.2-0.7-3.4-0.8s-2.3,0.2-3.4,0.6c-1.1,0.4-2.1,1.1-2.9,1.9
	l-44.5,44.5c-5.7,5.7-11.6-3-15.4-6.6c-9.1-9-19,7.9-25.1,12.8h142.9V192L369.3,143.3z"/>
</svg>
